<?xml version="1.0" standalone="no"?>
<!DOCTYPE svg PUBLIC "-//W3C//DTD SVG 20010904//EN"
 "http://www.w3.org/TR/2001/REC-SVG-20010904/DTD/svg10.dtd">
<svg version="1.0" xmlns="http://www.w3.org/2000/svg"
 width="800.000000pt" height="800.000000pt" viewBox="0 0 800.000000 800.000000"
 preserveAspectRatio="xMidYMid meet">
<metadata>
Created by potrace 1.11, written by Peter Selinger 2001-2013
</metadata>
<g transform="translate(0.000000,800.000000) scale(0.100000,-0.100000)"
fill="#000000" stroke="none">
<path d="M3100 6416 c-121 -25 -219 -111 -260 -229 -22 -63 -25 -132 -36
-1002 -3 -275 -7 -601 -9 -725 -2 -124 -6 -452 -9 -730 -9 -726 -12 -782 -47
-897 -76 -246 -289 -442 -556 -513 -200 -53 -487 -28 -658 57 -128 64 -212
159 -254 286 -11 34 -25 116 -31 182 -15 172 -58 253 -168 323 -196 125 -460
22 -525 -203 -35 -121 0 -393 74 -587 66 -171 134 -274 274 -414 242 -241 595
-371 1025 -378 202 -4 337 16 545 78 16 5 44 16 128 52 311 132 583 388 737
694 71 140 126 333 145 505 8 72 11 228 19 890 4 275 8 624 11 775 4 261 15
1014 19 1350 1 85 -2 177 -7 204 -22 125 -112 230 -232 271 -65 22 -117 25
-185 11z"/>
<path d="M3919 6279 c-7 -4 -17 -5 -21 -3 -4 3 -8 1 -8 -4 0 -5 -6 -9 -14 -9
-18 0 -86 -42 -86 -54 0 -5 -7 -9 -16 -9 -8 0 -12 -4 -9 -10 3 -5 1 -10 -5
-10 -6 0 -8 -4 -5 -10 3 -5 2 -10 -3 -10 -9 0 -17 -17 -30 -65 -7 -24 -9
-3270 -2 -3302 2 -13 8 -23 12 -23 4 0 7 -3 7 -7 -5 -33 47 -92 116 -130 l50
-28 857 -3 c513 -2 864 1 875 7 10 5 36 17 58 27 22 11 42 21 45 24 5 5 68 29
85 33 6 1 12 4 15 7 3 3 24 14 48 24 23 11 42 22 42 27 0 4 14 10 30 14 17 4
28 11 24 16 -3 5 0 9 6 9 14 0 80 50 123 92 16 16 33 28 38 28 5 0 9 4 9 10 0
5 14 23 30 40 17 17 30 35 30 41 0 6 5 7 10 4 6 -3 10 -3 10 2 0 7 20 40 63
102 9 14 24 42 33 61 9 19 20 38 26 41 5 3 10 16 11 27 1 12 4 22 8 22 6 0 23
58 20 73 0 4 4 7 11 7 6 0 9 3 6 6 -3 3 -2 21 4 41 15 55 19 73 27 138 9 65 6
244 -4 285 -4 14 -7 33 -7 43 1 9 -5 17 -11 17 -7 0 -6 4 3 10 11 7 11 10 2
10 -7 0 -11 4 -8 9 5 7 -1 29 -24 96 -4 11 -22 52 -40 90 -19 39 -33 73 -32
78 1 4 -2 7 -7 7 -5 0 -14 14 -21 30 -7 17 -16 30 -21 30 -5 0 -9 4 -9 10 0
10 -9 22 -62 83 -15 18 -28 35 -28 40 0 4 -7 7 -15 7 -8 0 -15 4 -15 9 0 5
-10 19 -23 31 l-23 22 64 66 c36 36 76 84 91 107 14 22 28 42 31 45 13 13 93
164 96 183 1 4 3 10 4 15 1 4 2 10 1 15 0 4 3 7 7 7 4 0 8 10 9 22 1 11 8 25
15 29 10 7 11 9 0 9 -9 0 -10 5 -3 19 32 59 48 327 26 421 -3 14 -8 41 -11 60
-3 19 -11 41 -17 49 -10 12 -9 13 1 7 12 -7 12 -4 1 15 -7 13 -12 29 -11 36 1
6 -2 14 -8 18 -5 3 -10 17 -10 31 0 13 -4 24 -8 24 -4 0 -14 17 -21 38 -8 20
-31 63 -52 95 -21 31 -32 55 -26 51 7 -3 -1 5 -17 20 -16 14 -26 26 -22 26 9
0 -55 70 -113 124 -24 23 -55 51 -68 64 -13 12 -28 22 -32 22 -4 0 -16 9 -26
20 -10 11 -22 17 -26 14 -5 -3 -9 -1 -9 4 0 5 -18 17 -40 27 -22 10 -40 22
-40 27 0 4 -6 8 -13 8 -7 0 -32 9 -55 20 -22 11 -48 20 -56 20 -8 0 -17 4 -20
9 -5 8 -62 25 -122 36 -11 2 -20 4 -21 5 -2 2 -6 3 -10 4 -5 1 -14 5 -22 10
-11 7 -12 6 -6 -5 7 -11 6 -12 -7 -2 -8 7 -18 10 -21 6 -4 -3 -7 -1 -7 4 0 10
-23 11 -55 3 -5 -1 -12 -1 -15 0 -3 1 -99 4 -215 6 -115 2 -238 5 -273 7 -36
1 -62 -2 -62 -8 0 -7 -3 -7 -8 0 -4 6 -79 10 -187 10 -108 0 -183 4 -187 10
-5 7 -8 7 -8 0 0 -6 -31 -9 -77 -8 -43 2 -102 3 -130 2 -29 0 -59 0 -65 0 -7
0 -81 2 -165 4 -83 2 -157 1 -164 -4z m991 -544 c530 -8 532 -8 548 -18 7 -5
12 -3 12 5 0 10 2 10 9 -1 5 -7 14 -10 20 -7 6 4 11 3 11 -2 0 -5 10 -9 23 -9
12 0 40 -8 62 -18 22 -10 43 -18 48 -17 4 1 7 -3 7 -8 0 -6 7 -10 15 -10 8 0
15 -4 15 -10 0 -5 7 -10 15 -10 7 0 19 -8 24 -17 6 -10 11 -15 11 -10 0 17
120 -122 120 -140 0 -7 5 -13 10 -13 6 0 10 -8 10 -18 0 -10 4 -22 10 -28 26
-26 56 -239 38 -270 -3 -5 -9 -25 -13 -44 -4 -19 -12 -41 -17 -47 -6 -7 -7
-13 -3 -13 4 0 2 -7 -5 -15 -7 -8 -9 -15 -4 -15 5 0 4 -4 -1 -8 -6 -4 -23 -27
-39 -52 -27 -42 -116 -138 -116 -125 0 3 -10 -4 -22 -15 -21 -20 -81 -52 -101
-54 -4 -1 -12 -8 -17 -16 -9 -13 -10 -13 -10 0 0 12 -2 13 -9 1 -5 -7 -13 -11
-19 -7 -6 3 -13 2 -17 -4 -4 -6 -11 -8 -16 -5 -5 4 -9 2 -9 -2 0 -5 -168 -9
-374 -8 -221 0 -372 -4 -369 -9 4 -5 0 -6 -7 -1 -17 11 -370 13 -377 2 -2 -4
-12 -4 -21 1 -9 4 -36 7 -59 6 -33 -1 -43 3 -43 15 -1 25 -1 962 -1 996 l1 31
108 -2 c59 -1 307 -5 552 -9z m439 -1570 c26 0 52 -4 60 -9 9 -6 12 -5 7 2 -4
7 1 10 14 9 11 -1 20 -4 20 -8 0 -3 10 -6 23 -6 31 1 90 -13 105 -25 6 -6 12
-8 12 -4 0 5 17 -3 91 -46 13 -7 45 -33 72 -58 27 -25 53 -46 58 -48 5 -2 9
-9 9 -16 0 -7 11 -25 24 -39 13 -14 21 -28 19 -31 -3 -3 -1 -11 4 -18 22 -29
44 -106 49 -172 3 -39 7 -72 9 -74 1 -2 -4 -29 -12 -60 -8 -31 -17 -66 -19
-76 -2 -11 -9 -23 -15 -26 -6 -4 -11 -11 -11 -16 -1 -15 -17 -54 -30 -71 -45
-56 -163 -163 -181 -163 -5 0 -21 -8 -35 -19 -15 -10 -35 -17 -44 -16 -10 2
-18 -2 -18 -8 0 -5 -3 -7 -6 -4 -4 3 -14 2 -23 -3 -9 -5 -44 -12 -76 -16 -83
-10 -785 -11 -785 -1 0 5 -6 5 -12 0 -18 -11 -68 -12 -68 -1 0 5 -6 6 -12 2
-7 -5 -83 -8 -170 -8 l-158 -1 0 50 c-3 337 0 966 4 973 3 6 58 10 121 10 84
0 113 -3 108 -11 -5 -9 -3 -9 8 -1 10 9 123 12 397 12 210 -1 385 2 389 5 3 4
11 4 16 0 6 -4 31 -7 56 -8z"/>
</g>
</svg>
